<mxfile host="app.diagrams.net" agent="Mozilla/5.0 (Macintosh; Intel Mac OS X 10_15_7) AppleWebKit/537.36 (KHTML, like Gecko) Chrome/131.0.0.0 Safari/537.36" version="26.0.2">
  <diagram name="API Endpoints" id="YNTXkybKBmyzElNmx2Z4">
    <mxGraphModel dx="2206" dy="1260" grid="1" gridSize="10" guides="1" tooltips="1" connect="1" arrows="1" fold="1" page="1" pageScale="1" pageWidth="827" pageHeight="1169" math="0" shadow="0">
      <root>
        <mxCell id="0" />
        <mxCell id="1" parent="0" />
        <mxCell id="Sm2Z-gAKLy4CFEZ5k70f-1" value="AssociationTypeController" style="shape=swimlane;startSize=20;fillColor=#fff2cc;gradientColor=#ffd966;strokeColor=#d6b656;" vertex="1" parent="1">
          <mxGeometry x="1040" y="1480" width="380" height="370" as="geometry" />
        </mxCell>
        <mxCell id="Sm2Z-gAKLy4CFEZ5k70f-2" value="/api/association-types" style="text;html=1;strokeColor=none;fillColor=none;" vertex="1" parent="Sm2Z-gAKLy4CFEZ5k70f-1">
          <mxGeometry x="20" y="30" width="300" height="30" as="geometry" />
        </mxCell>
        <mxCell id="Sm2Z-gAKLy4CFEZ5k70f-3" value="GET /object-type/{typeId}" style="text;html=1;strokeColor=none;fillColor=none;" vertex="1" parent="Sm2Z-gAKLy4CFEZ5k70f-1">
          <mxGeometry x="40" y="70" width="300" height="30" as="geometry" />
        </mxCell>
        <mxCell id="Sm2Z-gAKLy4CFEZ5k70f-4" value="GET /" style="text;html=1;strokeColor=none;fillColor=none;" vertex="1" parent="Sm2Z-gAKLy4CFEZ5k70f-1">
          <mxGeometry x="40" y="100" width="300" height="30" as="geometry" />
        </mxCell>
        <mxCell id="Sm2Z-gAKLy4CFEZ5k70f-5" value="GET /scenario" style="text;html=1;strokeColor=none;fillColor=none;" vertex="1" parent="Sm2Z-gAKLy4CFEZ5k70f-1">
          <mxGeometry x="40" y="130" width="300" height="30" as="geometry" />
        </mxCell>
        <mxCell id="Sm2Z-gAKLy4CFEZ5k70f-6" value="GET /search/findByFirstObjectTypeId" style="text;html=1;strokeColor=none;fillColor=none;" vertex="1" parent="Sm2Z-gAKLy4CFEZ5k70f-1">
          <mxGeometry x="40" y="160" width="300" height="30" as="geometry" />
        </mxCell>
        <mxCell id="Sm2Z-gAKLy4CFEZ5k70f-7" value="GET /search/findBySecondObjectTypeId" style="text;html=1;strokeColor=none;fillColor=none;" vertex="1" parent="Sm2Z-gAKLy4CFEZ5k70f-1">
          <mxGeometry x="40" y="190" width="300" height="30" as="geometry" />
        </mxCell>
        <mxCell id="Sm2Z-gAKLy4CFEZ5k70f-8" value="GET /search/findByDescription" style="text;html=1;strokeColor=none;fillColor=none;" vertex="1" parent="Sm2Z-gAKLy4CFEZ5k70f-1">
          <mxGeometry x="40" y="220" width="300" height="30" as="geometry" />
        </mxCell>
        <mxCell id="Sm2Z-gAKLy4CFEZ5k70f-9" value="GET /{id}" style="text;html=1;strokeColor=none;fillColor=none;" vertex="1" parent="Sm2Z-gAKLy4CFEZ5k70f-1">
          <mxGeometry x="40" y="250" width="300" height="30" as="geometry" />
        </mxCell>
        <mxCell id="Sm2Z-gAKLy4CFEZ5k70f-10" value="POST /" style="text;html=1;strokeColor=none;fillColor=none;" vertex="1" parent="Sm2Z-gAKLy4CFEZ5k70f-1">
          <mxGeometry x="40" y="280" width="300" height="30" as="geometry" />
        </mxCell>
        <mxCell id="Sm2Z-gAKLy4CFEZ5k70f-11" value="DELETE /{id}" style="text;html=1;strokeColor=none;fillColor=none;" vertex="1" parent="Sm2Z-gAKLy4CFEZ5k70f-1">
          <mxGeometry x="40" y="310" width="300" height="30" as="geometry" />
        </mxCell>
        <mxCell id="Sm2Z-gAKLy4CFEZ5k70f-12" value="PUT /{id}" style="text;html=1;strokeColor=none;fillColor=none;" vertex="1" parent="Sm2Z-gAKLy4CFEZ5k70f-1">
          <mxGeometry x="40" y="340" width="300" height="30" as="geometry" />
        </mxCell>
        <mxCell id="Sm2Z-gAKLy4CFEZ5k70f-13" value="ConfigurationController" style="shape=swimlane;startSize=20;fillColor=#d9eaf7;" vertex="1" parent="1">
          <mxGeometry x="1040" y="850" width="380" height="160" as="geometry" />
        </mxCell>
        <mxCell id="Sm2Z-gAKLy4CFEZ5k70f-14" value="/api/configuration" style="text;html=1;strokeColor=none;fillColor=none;" vertex="1" parent="Sm2Z-gAKLy4CFEZ5k70f-13">
          <mxGeometry x="20" y="30" width="300" height="30" as="geometry" />
        </mxCell>
        <mxCell id="Sm2Z-gAKLy4CFEZ5k70f-15" value="GET /user" style="text;html=1;strokeColor=none;fillColor=none;" vertex="1" parent="Sm2Z-gAKLy4CFEZ5k70f-13">
          <mxGeometry x="40" y="70" width="300" height="30" as="geometry" />
        </mxCell>
        <mxCell id="Sm2Z-gAKLy4CFEZ5k70f-16" value="GET /scenario" style="text;html=1;strokeColor=none;fillColor=none;" vertex="1" parent="Sm2Z-gAKLy4CFEZ5k70f-13">
          <mxGeometry x="40" y="100" width="300" height="30" as="geometry" />
        </mxCell>
        <mxCell id="Sm2Z-gAKLy4CFEZ5k70f-17" value="GET /scenario/user" style="text;html=1;strokeColor=none;fillColor=none;" vertex="1" parent="Sm2Z-gAKLy4CFEZ5k70f-13">
          <mxGeometry x="40" y="130" width="300" height="30" as="geometry" />
        </mxCell>
        <mxCell id="Sm2Z-gAKLy4CFEZ5k70f-18" value="EventController" style="shape=swimlane;startSize=20;fillColor=#ffcccc;strokeColor=#36393d;" vertex="1" parent="1">
          <mxGeometry x="100" y="1240" width="380" height="280" as="geometry" />
        </mxCell>
        <mxCell id="Sm2Z-gAKLy4CFEZ5k70f-19" value="/api/events" style="text;html=1;strokeColor=none;fillColor=none;" vertex="1" parent="Sm2Z-gAKLy4CFEZ5k70f-18">
          <mxGeometry x="20" y="30" width="300" height="30" as="geometry" />
        </mxCell>
        <mxCell id="Sm2Z-gAKLy4CFEZ5k70f-20" value="GET /" style="text;html=1;strokeColor=none;fillColor=none;" vertex="1" parent="Sm2Z-gAKLy4CFEZ5k70f-18">
          <mxGeometry x="40" y="70" width="300" height="30" as="geometry" />
        </mxCell>
        <mxCell id="Sm2Z-gAKLy4CFEZ5k70f-21" value="GET /{id}" style="text;html=1;strokeColor=none;fillColor=none;" vertex="1" parent="Sm2Z-gAKLy4CFEZ5k70f-18">
          <mxGeometry x="40" y="100" width="300" height="30" as="geometry" />
        </mxCell>
        <mxCell id="Sm2Z-gAKLy4CFEZ5k70f-22" value="GET /thread/{threadId}" style="text;html=1;strokeColor=none;fillColor=none;" vertex="1" parent="Sm2Z-gAKLy4CFEZ5k70f-18">
          <mxGeometry x="40" y="130" width="300" height="30" as="geometry" />
        </mxCell>
        <mxCell id="Sm2Z-gAKLy4CFEZ5k70f-23" value="GET /state/{id}" style="text;html=1;strokeColor=none;fillColor=none;" vertex="1" parent="Sm2Z-gAKLy4CFEZ5k70f-18">
          <mxGeometry x="40" y="160" width="300" height="30" as="geometry" />
        </mxCell>
        <mxCell id="Sm2Z-gAKLy4CFEZ5k70f-24" value="POST /" style="text;html=1;strokeColor=none;fillColor=none;" vertex="1" parent="Sm2Z-gAKLy4CFEZ5k70f-18">
          <mxGeometry x="40" y="190" width="300" height="30" as="geometry" />
        </mxCell>
        <mxCell id="Sm2Z-gAKLy4CFEZ5k70f-25" value="PUT /{id}" style="text;html=1;strokeColor=none;fillColor=none;" vertex="1" parent="Sm2Z-gAKLy4CFEZ5k70f-18">
          <mxGeometry x="40" y="220" width="300" height="30" as="geometry" />
        </mxCell>
        <mxCell id="Sm2Z-gAKLy4CFEZ5k70f-26" value="DELETE /{id}" style="text;html=1;strokeColor=none;fillColor=none;" vertex="1" parent="Sm2Z-gAKLy4CFEZ5k70f-18">
          <mxGeometry x="40" y="250" width="300" height="30" as="geometry" />
        </mxCell>
        <mxCell id="Sm2Z-gAKLy4CFEZ5k70f-27" value="AttributeTemplateController" style="shape=swimlane;startSize=20;fillColor=#fff2cc;gradientColor=#ffd966;strokeColor=#d6b656;" vertex="1" parent="1">
          <mxGeometry x="575" y="1630" width="370" height="220" as="geometry" />
        </mxCell>
        <mxCell id="Sm2Z-gAKLy4CFEZ5k70f-28" value="/api/attribute-templates" style="text;html=1;strokeColor=none;fillColor=none;" vertex="1" parent="Sm2Z-gAKLy4CFEZ5k70f-27">
          <mxGeometry x="20" y="30" width="320" height="30" as="geometry" />
        </mxCell>
        <mxCell id="Sm2Z-gAKLy4CFEZ5k70f-29" value="GET /template/{id}" style="text;html=1;strokeColor=none;fillColor=none;" vertex="1" parent="Sm2Z-gAKLy4CFEZ5k70f-27">
          <mxGeometry x="40" y="70" width="300" height="30" as="geometry" />
        </mxCell>
        <mxCell id="Sm2Z-gAKLy4CFEZ5k70f-30" value="GET /{id}" style="text;html=1;strokeColor=none;fillColor=none;" vertex="1" parent="Sm2Z-gAKLy4CFEZ5k70f-27">
          <mxGeometry x="40" y="100" width="300" height="30" as="geometry" />
        </mxCell>
        <mxCell id="Sm2Z-gAKLy4CFEZ5k70f-31" value="POST /" style="text;html=1;strokeColor=none;fillColor=none;" vertex="1" parent="Sm2Z-gAKLy4CFEZ5k70f-27">
          <mxGeometry x="40" y="130" width="300" height="30" as="geometry" />
        </mxCell>
        <mxCell id="Sm2Z-gAKLy4CFEZ5k70f-32" value="PUT /{id}" style="text;html=1;strokeColor=none;fillColor=none;" vertex="1" parent="Sm2Z-gAKLy4CFEZ5k70f-27">
          <mxGeometry x="40" y="160" width="300" height="30" as="geometry" />
        </mxCell>
        <mxCell id="Sm2Z-gAKLy4CFEZ5k70f-33" value="DELETE /{id}" style="text;html=1;strokeColor=none;fillColor=none;" vertex="1" parent="Sm2Z-gAKLy4CFEZ5k70f-27">
          <mxGeometry x="40" y="190" width="300" height="30" as="geometry" />
        </mxCell>
        <mxCell id="Sm2Z-gAKLy4CFEZ5k70f-34" value="ObjectInstanceController" style="shape=swimlane;startSize=20;fillColor=#fff2cc;strokeColor=#d6b656;gradientColor=#ffd966;" vertex="1" parent="1">
          <mxGeometry x="100" y="730" width="380" height="250" as="geometry" />
        </mxCell>
        <mxCell id="Sm2Z-gAKLy4CFEZ5k70f-35" value="/api/objects" style="text;html=1;strokeColor=none;fillColor=none;" vertex="1" parent="Sm2Z-gAKLy4CFEZ5k70f-34">
          <mxGeometry x="20" y="30" width="300" height="30" as="geometry" />
        </mxCell>
        <mxCell id="Sm2Z-gAKLy4CFEZ5k70f-36" value="GET /" style="text;html=1;strokeColor=none;fillColor=none;" vertex="1" parent="Sm2Z-gAKLy4CFEZ5k70f-34">
          <mxGeometry x="40" y="70" width="300" height="30" as="geometry" />
        </mxCell>
        <mxCell id="Sm2Z-gAKLy4CFEZ5k70f-37" value="GET /{objectId}" style="text;html=1;strokeColor=none;fillColor=none;" vertex="1" parent="Sm2Z-gAKLy4CFEZ5k70f-34">
          <mxGeometry x="40" y="100" width="300" height="30" as="geometry" />
        </mxCell>
        <mxCell id="Sm2Z-gAKLy4CFEZ5k70f-38" value="GET /thread/{threadId}" style="text;html=1;strokeColor=none;fillColor=none;" vertex="1" parent="Sm2Z-gAKLy4CFEZ5k70f-34">
          <mxGeometry x="40" y="130" width="300" height="30" as="geometry" />
        </mxCell>
        <mxCell id="Sm2Z-gAKLy4CFEZ5k70f-39" value="POST /" style="text;html=1;strokeColor=none;fillColor=none;" vertex="1" parent="Sm2Z-gAKLy4CFEZ5k70f-34">
          <mxGeometry x="40" y="160" width="300" height="30" as="geometry" />
        </mxCell>
        <mxCell id="Sm2Z-gAKLy4CFEZ5k70f-40" value="PUT /{id}" style="text;html=1;strokeColor=none;fillColor=none;" vertex="1" parent="Sm2Z-gAKLy4CFEZ5k70f-34">
          <mxGeometry x="40" y="190" width="300" height="30" as="geometry" />
        </mxCell>
        <mxCell id="Sm2Z-gAKLy4CFEZ5k70f-41" value="DELETE /{id}" style="text;html=1;strokeColor=none;fillColor=none;" vertex="1" parent="Sm2Z-gAKLy4CFEZ5k70f-34">
          <mxGeometry x="40" y="220" width="300" height="30" as="geometry" />
        </mxCell>
        <mxCell id="Sm2Z-gAKLy4CFEZ5k70f-42" value="ObjectTemplateController" style="shape=swimlane;startSize=20;fillColor=#fff2cc;strokeColor=#d6b656;gradientColor=#ffd966;" vertex="1" parent="1">
          <mxGeometry x="100" y="310" width="380" height="400" as="geometry" />
        </mxCell>
        <mxCell id="Sm2Z-gAKLy4CFEZ5k70f-43" value="/api/object-templates" style="text;html=1;strokeColor=none;fillColor=none;" vertex="1" parent="Sm2Z-gAKLy4CFEZ5k70f-42">
          <mxGeometry x="20" y="30" width="320" height="30" as="geometry" />
        </mxCell>
        <mxCell id="Sm2Z-gAKLy4CFEZ5k70f-44" value="GET /" style="text;html=1;strokeColor=none;fillColor=none;" vertex="1" parent="Sm2Z-gAKLy4CFEZ5k70f-42">
          <mxGeometry x="40" y="70" width="300" height="30" as="geometry" />
        </mxCell>
        <mxCell id="Sm2Z-gAKLy4CFEZ5k70f-45" value="GET /search/findByTitle" style="text;html=1;strokeColor=none;fillColor=none;" vertex="1" parent="Sm2Z-gAKLy4CFEZ5k70f-42">
          <mxGeometry x="40" y="100" width="300" height="30" as="geometry" />
        </mxCell>
        <mxCell id="Sm2Z-gAKLy4CFEZ5k70f-46" value="GET /search/findByDescription" style="text;html=1;strokeColor=none;fillColor=none;" vertex="1" parent="Sm2Z-gAKLy4CFEZ5k70f-42">
          <mxGeometry x="40" y="130" width="300" height="30" as="geometry" />
        </mxCell>
        <mxCell id="Sm2Z-gAKLy4CFEZ5k70f-47" value="GET /search/findByScenarioId/{scenarioId}" style="text;html=1;strokeColor=none;fillColor=none;" vertex="1" parent="Sm2Z-gAKLy4CFEZ5k70f-42">
          <mxGeometry x="40" y="160" width="300" height="30" as="geometry" />
        </mxCell>
        <mxCell id="Sm2Z-gAKLy4CFEZ5k70f-48" value="GET /search/findByScenarioIdAndObjectTypeId/{objectTypeId}" style="text;html=1;strokeColor=none;fillColor=none;" vertex="1" parent="Sm2Z-gAKLy4CFEZ5k70f-42">
          <mxGeometry x="40" y="190" width="300" height="30" as="geometry" />
        </mxCell>
        <mxCell id="Sm2Z-gAKLy4CFEZ5k70f-49" value="GET /{id}" style="text;html=1;strokeColor=none;fillColor=none;" vertex="1" parent="Sm2Z-gAKLy4CFEZ5k70f-42">
          <mxGeometry x="40" y="220" width="300" height="30" as="geometry" />
        </mxCell>
        <mxCell id="Sm2Z-gAKLy4CFEZ5k70f-50" value="POST /" style="text;html=1;strokeColor=none;fillColor=none;" vertex="1" parent="Sm2Z-gAKLy4CFEZ5k70f-42">
          <mxGeometry x="40" y="250" width="300" height="30" as="geometry" />
        </mxCell>
        <mxCell id="Sm2Z-gAKLy4CFEZ5k70f-51" value="POST /copy/{sourceScenarioId}/to/{targetScenarioId}" style="text;html=1;strokeColor=none;fillColor=none;" vertex="1" parent="Sm2Z-gAKLy4CFEZ5k70f-42">
          <mxGeometry x="40" y="280" width="300" height="30" as="geometry" />
        </mxCell>
        <mxCell id="Sm2Z-gAKLy4CFEZ5k70f-52" value="POST /{templateId}/assign-to-scenario/{scenarioId}" style="text;html=1;strokeColor=none;fillColor=none;" vertex="1" parent="Sm2Z-gAKLy4CFEZ5k70f-42">
          <mxGeometry x="40" y="310" width="300" height="30" as="geometry" />
        </mxCell>
        <mxCell id="Sm2Z-gAKLy4CFEZ5k70f-53" value="PUT /{id}" style="text;html=1;strokeColor=none;fillColor=none;" vertex="1" parent="Sm2Z-gAKLy4CFEZ5k70f-42">
          <mxGeometry x="40" y="340" width="300" height="30" as="geometry" />
        </mxCell>
        <mxCell id="Sm2Z-gAKLy4CFEZ5k70f-54" value="DELETE /{id}" style="text;html=1;strokeColor=none;fillColor=none;" vertex="1" parent="Sm2Z-gAKLy4CFEZ5k70f-42">
          <mxGeometry x="40" y="370" width="300" height="30" as="geometry" />
        </mxCell>
        <mxCell id="Sm2Z-gAKLy4CFEZ5k70f-55" value="ObjectTypeController" style="shape=swimlane;startSize=20;fillColor=#fff2cc;gradientColor=#ffd966;strokeColor=#d6b656;" vertex="1" parent="1">
          <mxGeometry x="1040" y="1030" width="380" height="430" as="geometry" />
        </mxCell>
        <mxCell id="Sm2Z-gAKLy4CFEZ5k70f-56" value="/api/object-types" style="text;html=1;strokeColor=none;fillColor=none;" vertex="1" parent="Sm2Z-gAKLy4CFEZ5k70f-55">
          <mxGeometry x="20" y="30" width="320" height="30" as="geometry" />
        </mxCell>
        <mxCell id="Sm2Z-gAKLy4CFEZ5k70f-57" value="GET /" style="text;html=1;strokeColor=none;fillColor=none;" vertex="1" parent="Sm2Z-gAKLy4CFEZ5k70f-55">
          <mxGeometry x="40" y="70" width="300" height="30" as="geometry" />
        </mxCell>
        <mxCell id="Sm2Z-gAKLy4CFEZ5k70f-58" value="GET /search/findByTitle" style="text;html=1;strokeColor=none;fillColor=none;" vertex="1" parent="Sm2Z-gAKLy4CFEZ5k70f-55">
          <mxGeometry x="40" y="100" width="300" height="30" as="geometry" />
        </mxCell>
        <mxCell id="Sm2Z-gAKLy4CFEZ5k70f-59" value="GET /search/findByDescription" style="text;html=1;strokeColor=none;fillColor=none;" vertex="1" parent="Sm2Z-gAKLy4CFEZ5k70f-55">
          <mxGeometry x="40" y="130" width="300" height="30" as="geometry" />
        </mxCell>
        <mxCell id="Sm2Z-gAKLy4CFEZ5k70f-60" value="GET /search/findByScenarioId/{scenarioId}" style="text;html=1;strokeColor=none;fillColor=none;" vertex="1" parent="Sm2Z-gAKLy4CFEZ5k70f-55">
          <mxGeometry x="40" y="160" width="300" height="30" as="geometry" />
        </mxCell>
        <mxCell id="Sm2Z-gAKLy4CFEZ5k70f-61" value="GET /roots" style="text;html=1;strokeColor=none;fillColor=none;" vertex="1" parent="Sm2Z-gAKLy4CFEZ5k70f-55">
          <mxGeometry x="40" y="190" width="300" height="30" as="geometry" />
        </mxCell>
        <mxCell id="Sm2Z-gAKLy4CFEZ5k70f-62" value="GET /children/{parentId}" style="text;html=1;strokeColor=none;fillColor=none;" vertex="1" parent="Sm2Z-gAKLy4CFEZ5k70f-55">
          <mxGeometry x="40" y="220" width="300" height="30" as="geometry" />
        </mxCell>
        <mxCell id="Sm2Z-gAKLy4CFEZ5k70f-63" value="GET /{id}" style="text;html=1;strokeColor=none;fillColor=none;" vertex="1" parent="Sm2Z-gAKLy4CFEZ5k70f-55">
          <mxGeometry x="40" y="250" width="300" height="30" as="geometry" />
        </mxCell>
        <mxCell id="Sm2Z-gAKLy4CFEZ5k70f-64" value="POST /" style="text;html=1;strokeColor=none;fillColor=none;" vertex="1" parent="Sm2Z-gAKLy4CFEZ5k70f-55">
          <mxGeometry x="40" y="280" width="300" height="30" as="geometry" />
        </mxCell>
        <mxCell id="Sm2Z-gAKLy4CFEZ5k70f-65" value="POST /copy/{sourceScenarioId}/to/{targetScenarioId}" style="text;html=1;strokeColor=none;fillColor=none;" vertex="1" parent="Sm2Z-gAKLy4CFEZ5k70f-55">
          <mxGeometry x="40" y="310" width="300" height="30" as="geometry" />
        </mxCell>
        <mxCell id="Sm2Z-gAKLy4CFEZ5k70f-66" value="POST /{objectTypeId}/assign-to-scenario/{scenarioId}" style="text;html=1;strokeColor=none;fillColor=none;" vertex="1" parent="Sm2Z-gAKLy4CFEZ5k70f-55">
          <mxGeometry x="40" y="340" width="300" height="30" as="geometry" />
        </mxCell>
        <mxCell id="Sm2Z-gAKLy4CFEZ5k70f-67" value="PUT /{id}" style="text;html=1;strokeColor=none;fillColor=none;" vertex="1" parent="Sm2Z-gAKLy4CFEZ5k70f-55">
          <mxGeometry x="40" y="370" width="300" height="30" as="geometry" />
        </mxCell>
        <mxCell id="Sm2Z-gAKLy4CFEZ5k70f-68" value="DELETE /{id}" style="text;html=1;strokeColor=none;fillColor=none;" vertex="1" parent="Sm2Z-gAKLy4CFEZ5k70f-55">
          <mxGeometry x="40" y="400" width="300" height="30" as="geometry" />
        </mxCell>
        <mxCell id="Sm2Z-gAKLy4CFEZ5k70f-69" value="ScenarioController" style="shape=swimlane;startSize=20;fillColor=#b1ddf0;strokeColor=#10739e;" vertex="1" parent="1">
          <mxGeometry x="1040" y="340" width="380" height="280" as="geometry" />
        </mxCell>
        <mxCell id="Sm2Z-gAKLy4CFEZ5k70f-70" value="/api/scenarios" style="text;html=1;strokeColor=none;fillColor=none;" vertex="1" parent="Sm2Z-gAKLy4CFEZ5k70f-69">
          <mxGeometry x="20" y="30" width="300" height="30" as="geometry" />
        </mxCell>
        <mxCell id="Sm2Z-gAKLy4CFEZ5k70f-71" value="GET /" style="text;html=1;strokeColor=none;fillColor=none;" vertex="1" parent="Sm2Z-gAKLy4CFEZ5k70f-69">
          <mxGeometry x="40" y="70" width="300" height="30" as="geometry" />
        </mxCell>
        <mxCell id="Sm2Z-gAKLy4CFEZ5k70f-72" value="GET /{id}" style="text;html=1;strokeColor=none;fillColor=none;" vertex="1" parent="Sm2Z-gAKLy4CFEZ5k70f-69">
          <mxGeometry x="40" y="100" width="300" height="30" as="geometry" />
        </mxCell>
        <mxCell id="Sm2Z-gAKLy4CFEZ5k70f-73" value="GET /search/findByTitle" style="text;html=1;strokeColor=none;fillColor=none;" vertex="1" parent="Sm2Z-gAKLy4CFEZ5k70f-69">
          <mxGeometry x="40" y="130" width="300" height="30" as="geometry" />
        </mxCell>
        <mxCell id="Sm2Z-gAKLy4CFEZ5k70f-74" value="GET /search/findByDescription" style="text;html=1;strokeColor=none;fillColor=none;" vertex="1" parent="Sm2Z-gAKLy4CFEZ5k70f-69">
          <mxGeometry x="40" y="160" width="300" height="30" as="geometry" />
        </mxCell>
        <mxCell id="Sm2Z-gAKLy4CFEZ5k70f-75" value="POST /" style="text;html=1;strokeColor=none;fillColor=none;" vertex="1" parent="Sm2Z-gAKLy4CFEZ5k70f-69">
          <mxGeometry x="40" y="190" width="300" height="30" as="geometry" />
        </mxCell>
        <mxCell id="Sm2Z-gAKLy4CFEZ5k70f-76" value="PUT /{id}" style="text;html=1;strokeColor=none;fillColor=none;" vertex="1" parent="Sm2Z-gAKLy4CFEZ5k70f-69">
          <mxGeometry x="40" y="220" width="300" height="30" as="geometry" />
        </mxCell>
        <mxCell id="Sm2Z-gAKLy4CFEZ5k70f-77" value="DELETE /{id}" style="text;html=1;strokeColor=none;fillColor=none;" vertex="1" parent="Sm2Z-gAKLy4CFEZ5k70f-69">
          <mxGeometry x="40" y="250" width="300" height="30" as="geometry" />
        </mxCell>
        <mxCell id="Sm2Z-gAKLy4CFEZ5k70f-78" value="ScenarioPhaseController" style="shape=swimlane;startSize=20;fillColor=#b1ddf0;strokeColor=#10739e;" vertex="1" parent="1">
          <mxGeometry x="1040" y="640" width="380" height="190" as="geometry" />
        </mxCell>
        <mxCell id="Sm2Z-gAKLy4CFEZ5k70f-79" value="/api/scenario-phases" style="text;html=1;strokeColor=none;fillColor=none;" vertex="1" parent="Sm2Z-gAKLy4CFEZ5k70f-78">
          <mxGeometry x="20" y="30" width="320" height="30" as="geometry" />
        </mxCell>
        <mxCell id="Sm2Z-gAKLy4CFEZ5k70f-80" value="GET /" style="text;html=1;strokeColor=none;fillColor=none;" vertex="1" parent="Sm2Z-gAKLy4CFEZ5k70f-78">
          <mxGeometry x="40" y="70" width="300" height="30" as="geometry" />
        </mxCell>
        <mxCell id="Sm2Z-gAKLy4CFEZ5k70f-81" value="POST /" style="text;html=1;strokeColor=none;fillColor=none;" vertex="1" parent="Sm2Z-gAKLy4CFEZ5k70f-78">
          <mxGeometry x="40" y="100" width="300" height="30" as="geometry" />
        </mxCell>
        <mxCell id="Sm2Z-gAKLy4CFEZ5k70f-82" value="PUT /{id}" style="text;html=1;strokeColor=none;fillColor=none;" vertex="1" parent="Sm2Z-gAKLy4CFEZ5k70f-78">
          <mxGeometry x="40" y="130" width="300" height="30" as="geometry" />
        </mxCell>
        <mxCell id="Sm2Z-gAKLy4CFEZ5k70f-83" value="DELETE /{id}" style="text;html=1;strokeColor=none;fillColor=none;" vertex="1" parent="Sm2Z-gAKLy4CFEZ5k70f-78">
          <mxGeometry x="40" y="160" width="300" height="30" as="geometry" />
        </mxCell>
        <mxCell id="Sm2Z-gAKLy4CFEZ5k70f-84" value="BranchingController" style="shape=swimlane;startSize=20;fillColor=#ffcccc;strokeColor=#36393d;" vertex="1" parent="1">
          <mxGeometry x="100" y="1540" width="380" height="310" as="geometry" />
        </mxCell>
        <mxCell id="Sm2Z-gAKLy4CFEZ5k70f-85" value="/api/branchings" style="text;html=1;strokeColor=none;fillColor=none;" vertex="1" parent="Sm2Z-gAKLy4CFEZ5k70f-84">
          <mxGeometry x="20" y="30" width="320" height="30" as="geometry" />
        </mxCell>
        <mxCell id="Sm2Z-gAKLy4CFEZ5k70f-86" value="GET /" style="text;html=1;strokeColor=none;fillColor=none;" vertex="1" parent="Sm2Z-gAKLy4CFEZ5k70f-84">
          <mxGeometry x="40" y="70" width="300" height="30" as="geometry" />
        </mxCell>
        <mxCell id="Sm2Z-gAKLy4CFEZ5k70f-87" value="GET /{id}" style="text;html=1;strokeColor=none;fillColor=none;" vertex="1" parent="Sm2Z-gAKLy4CFEZ5k70f-84">
          <mxGeometry x="40" y="100" width="300" height="30" as="geometry" />
        </mxCell>
        <mxCell id="Sm2Z-gAKLy4CFEZ5k70f-88" value="POST /fork" style="text;html=1;strokeColor=none;fillColor=none;" vertex="1" parent="Sm2Z-gAKLy4CFEZ5k70f-84">
          <mxGeometry x="40" y="130" width="300" height="30" as="geometry" />
        </mxCell>
        <mxCell id="Sm2Z-gAKLy4CFEZ5k70f-89" value="POST /join" style="text;html=1;strokeColor=none;fillColor=none;" vertex="1" parent="Sm2Z-gAKLy4CFEZ5k70f-84">
          <mxGeometry x="40" y="160" width="300" height="30" as="geometry" />
        </mxCell>
        <mxCell id="Sm2Z-gAKLy4CFEZ5k70f-90" value="PUT /fork/{id}" style="text;html=1;strokeColor=none;fillColor=none;" vertex="1" parent="Sm2Z-gAKLy4CFEZ5k70f-84">
          <mxGeometry x="40" y="190" width="300" height="30" as="geometry" />
        </mxCell>
        <mxCell id="Sm2Z-gAKLy4CFEZ5k70f-91" value="PUT /join/{id}" style="text;html=1;strokeColor=none;fillColor=none;" vertex="1" parent="Sm2Z-gAKLy4CFEZ5k70f-84">
          <mxGeometry x="40" y="220" width="300" height="30" as="geometry" />
        </mxCell>
        <mxCell id="Sm2Z-gAKLy4CFEZ5k70f-92" value="DELETE /fork/{id}" style="text;html=1;strokeColor=none;fillColor=none;" vertex="1" parent="Sm2Z-gAKLy4CFEZ5k70f-84">
          <mxGeometry x="40" y="250" width="300" height="30" as="geometry" />
        </mxCell>
        <mxCell id="Sm2Z-gAKLy4CFEZ5k70f-93" value="DELETE /join/{id}" style="text;html=1;strokeColor=none;fillColor=none;" vertex="1" parent="Sm2Z-gAKLy4CFEZ5k70f-84">
          <mxGeometry x="40" y="280" width="300" height="30" as="geometry" />
        </mxCell>
        <mxCell id="Sm2Z-gAKLy4CFEZ5k70f-94" value="ThreadController" style="shape=swimlane;startSize=20;fillColor=#ffcccc;strokeColor=#36393d;" vertex="1" parent="1">
          <mxGeometry x="100" y="1000" width="380" height="220" as="geometry" />
        </mxCell>
        <mxCell id="Sm2Z-gAKLy4CFEZ5k70f-95" value="/api/threads" style="text;html=1;strokeColor=none;fillColor=none;" vertex="1" parent="Sm2Z-gAKLy4CFEZ5k70f-94">
          <mxGeometry x="20" y="30" width="300" height="30" as="geometry" />
        </mxCell>
        <mxCell id="Sm2Z-gAKLy4CFEZ5k70f-96" value="GET /" style="text;html=1;strokeColor=none;fillColor=none;" vertex="1" parent="Sm2Z-gAKLy4CFEZ5k70f-94">
          <mxGeometry x="40" y="70" width="300" height="30" as="geometry" />
        </mxCell>
        <mxCell id="Sm2Z-gAKLy4CFEZ5k70f-97" value="GET /{threadId}" style="text;html=1;strokeColor=none;fillColor=none;" vertex="1" parent="Sm2Z-gAKLy4CFEZ5k70f-94">
          <mxGeometry x="40" y="100" width="300" height="30" as="geometry" />
        </mxCell>
        <mxCell id="Sm2Z-gAKLy4CFEZ5k70f-98" value="POST /" style="text;html=1;strokeColor=none;fillColor=none;" vertex="1" parent="Sm2Z-gAKLy4CFEZ5k70f-94">
          <mxGeometry x="40" y="130" width="300" height="30" as="geometry" />
        </mxCell>
        <mxCell id="Sm2Z-gAKLy4CFEZ5k70f-99" value="PUT /{id}" style="text;html=1;strokeColor=none;fillColor=none;" vertex="1" parent="Sm2Z-gAKLy4CFEZ5k70f-94">
          <mxGeometry x="40" y="160" width="300" height="30" as="geometry" />
        </mxCell>
        <mxCell id="Sm2Z-gAKLy4CFEZ5k70f-100" value="DELETE /{id}" style="text;html=1;strokeColor=none;fillColor=none;" vertex="1" parent="Sm2Z-gAKLy4CFEZ5k70f-94">
          <mxGeometry x="40" y="190" width="300" height="30" as="geometry" />
        </mxCell>
        <mxCell id="Sm2Z-gAKLy4CFEZ5k70f-101" value="UserController" style="shape=swimlane;startSize=20;fillColor=#b1ddf0;strokeColor=#10739e;" vertex="1" parent="1">
          <mxGeometry x="575" y="310" width="370" height="160" as="geometry" />
        </mxCell>
        <mxCell id="Sm2Z-gAKLy4CFEZ5k70f-102" value="/api/users" style="text;html=1;strokeColor=none;fillColor=none;" vertex="1" parent="Sm2Z-gAKLy4CFEZ5k70f-101">
          <mxGeometry x="20" y="30" width="300" height="30" as="geometry" />
        </mxCell>
        <mxCell id="Sm2Z-gAKLy4CFEZ5k70f-103" value="GET /me" style="text;html=1;strokeColor=none;fillColor=none;" vertex="1" parent="Sm2Z-gAKLy4CFEZ5k70f-101">
          <mxGeometry x="40" y="70" width="300" height="30" as="geometry" />
        </mxCell>
        <mxCell id="Sm2Z-gAKLy4CFEZ5k70f-104" value="POST /assign/{objectId}" style="text;html=1;strokeColor=none;fillColor=none;" vertex="1" parent="Sm2Z-gAKLy4CFEZ5k70f-101">
          <mxGeometry x="40" y="100" width="300" height="30" as="geometry" />
        </mxCell>
        <mxCell id="Sm2Z-gAKLy4CFEZ5k70f-105" value="DELETE /assign/{objectId}" style="text;html=1;strokeColor=none;fillColor=none;" vertex="1" parent="Sm2Z-gAKLy4CFEZ5k70f-101">
          <mxGeometry x="40" y="130" width="300" height="30" as="geometry" />
        </mxCell>
        <mxCell id="Sm2Z-gAKLy4CFEZ5k70f-114" style="edgeStyle=orthogonalEdgeStyle;rounded=0;orthogonalLoop=1;jettySize=auto;html=1;entryX=0.5;entryY=0;entryDx=0;entryDy=0;" edge="1" parent="1" source="Sm2Z-gAKLy4CFEZ5k70f-110" target="Sm2Z-gAKLy4CFEZ5k70f-27">
          <mxGeometry relative="1" as="geometry" />
        </mxCell>
        <mxCell id="Sm2Z-gAKLy4CFEZ5k70f-115" style="edgeStyle=orthogonalEdgeStyle;rounded=0;orthogonalLoop=1;jettySize=auto;html=1;entryX=0;entryY=0.5;entryDx=0;entryDy=0;" edge="1" parent="1" source="Sm2Z-gAKLy4CFEZ5k70f-110" target="Sm2Z-gAKLy4CFEZ5k70f-13">
          <mxGeometry relative="1" as="geometry" />
        </mxCell>
        <mxCell id="Sm2Z-gAKLy4CFEZ5k70f-125" style="edgeStyle=orthogonalEdgeStyle;rounded=0;orthogonalLoop=1;jettySize=auto;html=1;entryX=0;entryY=0.5;entryDx=0;entryDy=0;" edge="1" parent="1" source="Sm2Z-gAKLy4CFEZ5k70f-110" target="Sm2Z-gAKLy4CFEZ5k70f-55">
          <mxGeometry relative="1" as="geometry" />
        </mxCell>
        <mxCell id="Sm2Z-gAKLy4CFEZ5k70f-126" style="edgeStyle=orthogonalEdgeStyle;rounded=0;orthogonalLoop=1;jettySize=auto;html=1;entryX=0;entryY=0.5;entryDx=0;entryDy=0;" edge="1" parent="1" source="Sm2Z-gAKLy4CFEZ5k70f-110" target="Sm2Z-gAKLy4CFEZ5k70f-1">
          <mxGeometry relative="1" as="geometry" />
        </mxCell>
        <mxCell id="Sm2Z-gAKLy4CFEZ5k70f-135" style="edgeStyle=orthogonalEdgeStyle;rounded=0;orthogonalLoop=1;jettySize=auto;html=1;entryX=0;entryY=0.5;entryDx=0;entryDy=0;" edge="1" parent="1" source="Sm2Z-gAKLy4CFEZ5k70f-110" target="Sm2Z-gAKLy4CFEZ5k70f-69">
          <mxGeometry relative="1" as="geometry" />
        </mxCell>
        <mxCell id="Sm2Z-gAKLy4CFEZ5k70f-139" style="edgeStyle=orthogonalEdgeStyle;rounded=0;orthogonalLoop=1;jettySize=auto;html=1;" edge="1" parent="1" source="Sm2Z-gAKLy4CFEZ5k70f-110">
          <mxGeometry relative="1" as="geometry">
            <mxPoint x="760" y="470" as="targetPoint" />
          </mxGeometry>
        </mxCell>
        <mxCell id="Sm2Z-gAKLy4CFEZ5k70f-140" style="edgeStyle=orthogonalEdgeStyle;rounded=0;orthogonalLoop=1;jettySize=auto;html=1;" edge="1" parent="1" source="Sm2Z-gAKLy4CFEZ5k70f-110">
          <mxGeometry relative="1" as="geometry">
            <mxPoint x="480" y="1070" as="targetPoint" />
          </mxGeometry>
        </mxCell>
        <mxCell id="Sm2Z-gAKLy4CFEZ5k70f-141" style="edgeStyle=orthogonalEdgeStyle;rounded=0;orthogonalLoop=1;jettySize=auto;html=1;entryX=1;entryY=0.5;entryDx=0;entryDy=0;" edge="1" parent="1" source="Sm2Z-gAKLy4CFEZ5k70f-110" target="Sm2Z-gAKLy4CFEZ5k70f-42">
          <mxGeometry relative="1" as="geometry" />
        </mxCell>
        <mxCell id="Sm2Z-gAKLy4CFEZ5k70f-142" style="edgeStyle=orthogonalEdgeStyle;rounded=0;orthogonalLoop=1;jettySize=auto;html=1;entryX=1;entryY=0.5;entryDx=0;entryDy=0;" edge="1" parent="1" source="Sm2Z-gAKLy4CFEZ5k70f-110" target="Sm2Z-gAKLy4CFEZ5k70f-34">
          <mxGeometry relative="1" as="geometry" />
        </mxCell>
        <mxCell id="Sm2Z-gAKLy4CFEZ5k70f-143" style="edgeStyle=orthogonalEdgeStyle;rounded=0;orthogonalLoop=1;jettySize=auto;html=1;entryX=1;entryY=0.5;entryDx=0;entryDy=0;" edge="1" parent="1" source="Sm2Z-gAKLy4CFEZ5k70f-110" target="Sm2Z-gAKLy4CFEZ5k70f-18">
          <mxGeometry relative="1" as="geometry" />
        </mxCell>
        <mxCell id="Sm2Z-gAKLy4CFEZ5k70f-145" style="edgeStyle=orthogonalEdgeStyle;rounded=0;orthogonalLoop=1;jettySize=auto;html=1;entryX=1;entryY=0.5;entryDx=0;entryDy=0;" edge="1" parent="1" source="Sm2Z-gAKLy4CFEZ5k70f-110" target="Sm2Z-gAKLy4CFEZ5k70f-84">
          <mxGeometry relative="1" as="geometry" />
        </mxCell>
        <mxCell id="Sm2Z-gAKLy4CFEZ5k70f-110" value="&lt;font style=&quot;font-size: 32px;&quot;&gt;REST API&lt;/font&gt;" style="ellipse;shape=cloud;whiteSpace=wrap;html=1;" vertex="1" parent="1">
          <mxGeometry x="580" y="960" width="360" height="220" as="geometry" />
        </mxCell>
      </root>
    </mxGraphModel>
  </diagram>
</mxfile>
